<?xml version="1.0" encoding="utf-8"?>
<!-- Generator: Adobe Illustrator 19.0.0, SVG Export Plug-In . SVG Version: 6.00 Build 0)  -->
<svg version="1.1" id="Layer_1" xmlns="http://www.w3.org/2000/svg" xmlns:xlink="http://www.w3.org/1999/xlink" x="0px" y="0px"
	 viewBox="-237 408.9 120 24" style="enable-background:new -237 408.9 120 24;" xml:space="preserve">
<style type="text/css">
	.st0{fill:#FFFFFF;}
</style>
<path class="st0" d="M-219.6,426.6c0,0.4-0.1,0.7-0.4,0.9l-1.8,1.8c-0.2,0.2-0.6,0.4-0.9,0.4c-0.4,0-0.7-0.1-0.9-0.4l-3.9-3.9
	l-3.9,3.9c-0.2,0.2-0.6,0.4-0.9,0.4c-0.4,0-0.7-0.1-0.9-0.4l-1.8-1.8c-0.2-0.2-0.4-0.6-0.4-0.9s0.1-0.7,0.4-0.9l3.9-3.9l-3.9-3.9
	c-0.2-0.2-0.4-0.6-0.4-0.9s0.1-0.7,0.4-0.9l1.8-1.8c0.2-0.2,0.6-0.4,0.9-0.4c0.4,0,0.7,0.1,0.9,0.4l3.9,3.9l3.9-3.9
	c0.2-0.2,0.6-0.4,0.9-0.4c0.4,0,0.7,0.1,0.9,0.4l1.8,1.8c0.2,0.2,0.4,0.6,0.4,0.9s-0.1,0.7-0.4,0.9l-3.9,3.9l3.9,3.9
	C-219.7,425.9-219.6,426.2-219.6,426.6z M-179.1,430l-8.7-8.7c-0.3-0.3-0.5-0.7-0.5-1.2s0.2-0.9,0.5-1.2l8.7-8.7
	c0.3-0.3,0.7-0.5,1.2-0.5c0.5,0,0.9,0.2,1.2,0.5l1,1c0.3,0.3,0.5,0.7,0.5,1.2c0,0.5-0.2,0.9-0.5,1.2l-6.5,6.5l6.5,6.5
	c0.3,0.3,0.5,0.7,0.5,1.2c0,0.5-0.2,0.9-0.5,1.2l-1,1c-0.3,0.3-0.7,0.5-1.2,0.5C-178.3,430.5-178.7,430.3-179.1,430L-179.1,430z
	 M-126.3,420c0,0.5-0.2,0.9-0.5,1.2l-8.7,8.7c-0.3,0.3-0.7,0.5-1.2,0.5s-0.9-0.2-1.2-0.5l-1-1c-0.3-0.3-0.5-0.8-0.5-1.2
	c0-0.5,0.2-0.9,0.5-1.2l6.5-6.5l-6.5-6.5c-0.3-0.3-0.5-0.8-0.5-1.2c0-0.5,0.2-0.9,0.5-1.2l1-1c0.3-0.3,0.7-0.5,1.2-0.5
	s0.9,0.2,1.2,0.5l8.7,8.7C-126.4,419.2-126.3,419.6-126.3,420L-126.3,420z"/>
</svg>
