<?xml version="1.0" encoding="UTF-8"?>
<svg width="80px" height="80px" viewBox="0 0 80 80" version="1.1" xmlns="http://www.w3.org/2000/svg" xmlns:xlink="http://www.w3.org/1999/xlink">
    <title>view-case</title>
    <g id="view-case" stroke="none" stroke-width="1" fill="none" fill-rule="evenodd">
        <circle id="Oval" fill="#9B0878" style="mix-blend-mode: multiply;" cx="40" cy="40" r="40"></circle>
        <g id="View-Case" transform="translate(21.784091, 23.000000)" fill="#FFFFFF" fill-rule="nonzero">
            <polygon id="Path" points="1.63636364 0.363636364 5.09090909 10.1590909 5.22727273 10.1590909 8.68181818 0.363636364 10.1590909 0.363636364 5.88636364 12 4.43181818 12 0.159090909 0.363636364"></polygon>
            <path d="M11.7954545,12 L11.7954545,3.27272727 L13.1363636,3.27272727 L13.1363636,12 L11.7954545,12 Z M12.4772727,1.81818182 C12.2159091,1.81818182 11.9914773,1.72916667 11.8039773,1.55113636 C11.6164773,1.37310606 11.5227273,1.15909091 11.5227273,0.909090909 C11.5227273,0.659090909 11.6164773,0.445075758 11.8039773,0.267045455 C11.9914773,0.0890151515 12.2159091,0 12.4772727,0 C12.7386364,0 12.9630682,0.0890151515 13.1505682,0.267045455 C13.3380682,0.445075758 13.4318182,0.659090909 13.4318182,0.909090909 C13.4318182,1.15909091 13.3380682,1.37310606 13.1505682,1.55113636 C12.9630682,1.72916667 12.7386364,1.81818182 12.4772727,1.81818182 Z" id="Shape"></path>
            <path d="M19.25,12.1818182 C18.4090909,12.1818182 17.6846591,11.9952652 17.0767045,11.6221591 C16.46875,11.249053 16.000947,10.7263258 15.6732955,10.0539773 C15.3456439,9.38162879 15.1818182,8.59848485 15.1818182,7.70454545 C15.1818182,6.81060606 15.3456439,6.0217803 15.6732955,5.33806818 C16.000947,4.65435606 16.4592803,4.12026515 17.0482955,3.73579545 C17.6373106,3.35132576 18.3257576,3.15909091 19.1136364,3.15909091 C19.5681818,3.15909091 20.0170455,3.23484848 20.4602273,3.38636364 C20.9034091,3.53787879 21.3068182,3.78314394 21.6704545,4.12215909 C22.0340909,4.46117424 22.3238636,4.90909091 22.5397727,5.46590909 C22.7556818,6.02272727 22.8636364,6.70833333 22.8636364,7.52272727 L22.8636364,8.09090909 L16.1363636,8.09090909 L16.1363636,6.93181818 L21.5,6.93181818 C21.5,6.43939394 21.4024621,6 21.2073864,5.61363636 C21.0123106,5.22727273 20.7357955,4.92234848 20.3778409,4.69886364 C20.0198864,4.47537879 19.5984848,4.36363636 19.1136364,4.36363636 C18.5795455,4.36363636 18.1183712,4.49526515 17.7301136,4.75852273 C17.3418561,5.0217803 17.0435606,5.36363636 16.8352273,5.78409091 C16.6268939,6.20454545 16.5227273,6.65530303 16.5227273,7.13636364 L16.5227273,7.90909091 C16.5227273,8.56818182 16.6373106,9.12594697 16.8664773,9.58238636 C17.0956439,10.0388258 17.4147727,10.3854167 17.8238636,10.6221591 C18.2329545,10.8589015 18.7083333,10.9772727 19.25,10.9772727 C19.6022727,10.9772727 19.9214015,10.9270833 20.2073864,10.8267045 C20.4933712,10.7263258 20.7405303,10.5748106 20.9488636,10.3721591 C21.157197,10.1695076 21.3181818,9.91666667 21.4318182,9.61363636 L22.7272727,9.97727273 C22.5909091,10.4166667 22.3617424,10.8020833 22.0397727,11.1335227 C21.717803,11.4649621 21.3200758,11.7225379 20.8465909,11.90625 C20.3731061,12.0899621 19.8409091,12.1818182 19.25,12.1818182 Z" id="Path"></path>
            <polygon id="Path" points="26.8863636 12 24.2272727 3.27272727 25.6363636 3.27272727 27.5227273 9.95454545 27.6136364 9.95454545 29.4772727 3.27272727 30.9090909 3.27272727 32.75 9.93181818 32.8409091 9.93181818 34.7272727 3.27272727 36.1363636 3.27272727 33.4772727 12 32.1590909 12 30.25 5.29545455 30.1136364 5.29545455 28.2045455 12"></polygon>
            <path d="M9.81818182,24 L8.40909091,24 C8.32575758,23.594697 8.18087121,23.2386364 7.97443182,22.9318182 C7.76799242,22.625 7.51799242,22.3664773 7.22443182,22.15625 C6.93087121,21.9460227 6.60606061,21.7878788 6.25,21.6818182 C5.89393939,21.5757576 5.52272727,21.5227273 5.13636364,21.5227273 C4.43181818,21.5227273 3.79450758,21.7007576 3.22443182,22.0568182 C2.65435606,22.4128788 2.20170455,22.9375 1.86647727,23.6306818 C1.53125,24.3238636 1.36363636,25.1742424 1.36363636,26.1818182 C1.36363636,27.1893939 1.53125,28.0397727 1.86647727,28.7329545 C2.20170455,29.4261364 2.65435606,29.9507576 3.22443182,30.3068182 C3.79450758,30.6628788 4.43181818,30.8409091 5.13636364,30.8409091 C5.52272727,30.8409091 5.89393939,30.7878788 6.25,30.6818182 C6.60606061,30.5757576 6.93087121,30.4176136 7.22443182,30.2073864 C7.51799242,29.9971591 7.76799242,29.7376894 7.97443182,29.4289773 C8.18087121,29.1202652 8.32575758,28.7651515 8.40909091,28.3636364 L9.81818182,28.3636364 C9.71212121,28.9583333 9.51893939,29.4905303 9.23863636,29.9602273 C8.95833333,30.4299242 8.60984848,30.8285985 8.19318182,31.15625 C7.77651515,31.4839015 7.30965909,31.7329545 6.79261364,31.9034091 C6.27556818,32.0738636 5.72348485,32.1590909 5.13636364,32.1590909 C4.14393939,32.1590909 3.26136364,31.9166667 2.48863636,31.4318182 C1.71590909,30.9469697 1.10795455,30.2575758 0.664772727,29.3636364 C0.221590909,28.469697 0,27.4090909 0,26.1818182 C0,24.9545455 0.221590909,23.8939394 0.664772727,23 C1.10795455,22.1060606 1.71590909,21.4166667 2.48863636,20.9318182 C3.26136364,20.4469697 4.14393939,20.2045455 5.13636364,20.2045455 C5.72348485,20.2045455 6.27556818,20.2897727 6.79261364,20.4602273 C7.30965909,20.6306818 7.77651515,20.8797348 8.19318182,21.2073864 C8.60984848,21.5350379 8.95833333,21.9327652 9.23863636,22.4005682 C9.51893939,22.8683712 9.71212121,23.4015152 9.81818182,24 Z" id="Path"></path>
            <path d="M14.4772727,32.2045455 C13.9242424,32.2045455 13.4223485,32.0994318 12.9715909,31.8892045 C12.5208333,31.6789773 12.1628788,31.374053 11.8977273,30.9744318 C11.6325758,30.5748106 11.5,30.0909091 11.5,29.5227273 C11.5,29.0227273 11.5984848,28.6164773 11.7954545,28.3039773 C11.9924242,27.9914773 12.2556818,27.7462121 12.5852273,27.5681818 C12.9147727,27.3901515 13.2793561,27.2566288 13.6789773,27.1676136 C14.0785985,27.0785985 14.4810606,27.0075758 14.8863636,26.9545455 C15.4166667,26.8863636 15.8475379,26.8342803 16.1789773,26.7982955 C16.5104167,26.7623106 16.7528409,26.7007576 16.90625,26.6136364 C17.0596591,26.5265152 17.1363636,26.375 17.1363636,26.1590909 L17.1363636,26.1136364 C17.1363636,25.5530303 16.9839015,25.1174242 16.6789773,24.8068182 C16.374053,24.4962121 15.9128788,24.3409091 15.2954545,24.3409091 C14.655303,24.3409091 14.1534091,24.4810606 13.7897727,24.7613636 C13.4261364,25.0416667 13.1704545,25.3409091 13.0227273,25.6590909 L11.75,25.2045455 C11.9772727,24.6742424 12.28125,24.2604167 12.6619318,23.9630682 C13.0426136,23.6657197 13.4592803,23.4573864 13.9119318,23.3380682 C14.3645833,23.21875 14.8106061,23.1590909 15.25,23.1590909 C15.530303,23.1590909 15.8532197,23.1922348 16.21875,23.2585227 C16.5842803,23.3248106 16.938447,23.4602273 17.28125,23.6647727 C17.624053,23.8693182 17.9090909,24.1780303 18.1363636,24.5909091 C18.3636364,25.0037879 18.4772727,25.5568182 18.4772727,26.25 L18.4772727,32 L17.1363636,32 L17.1363636,30.8181818 L17.0681818,30.8181818 C16.9772727,31.0075758 16.8257576,31.2102273 16.6136364,31.4261364 C16.4015152,31.6420455 16.1193182,31.8257576 15.7670455,31.9772727 C15.4147727,32.1287879 14.9848485,32.2045455 14.4772727,32.2045455 Z M14.6818182,31 C15.2121212,31 15.6600379,30.8958333 16.0255682,30.6875 C16.3910985,30.4791667 16.6676136,30.2102273 16.8551136,29.8806818 C17.0426136,29.5511364 17.1363636,29.2045455 17.1363636,28.8409091 L17.1363636,27.6136364 C17.0795455,27.6818182 16.9554924,27.7433712 16.7642045,27.7982955 C16.5729167,27.8532197 16.3532197,27.9005682 16.1051136,27.9403409 C15.8570076,27.9801136 15.6164773,28.0142045 15.3835227,28.0426136 C15.1505682,28.0710227 14.9621212,28.094697 14.8181818,28.1136364 C14.469697,28.1590909 14.1448864,28.2320076 13.84375,28.3323864 C13.5426136,28.4327652 13.3001894,28.5823864 13.1164773,28.78125 C12.9327652,28.9801136 12.8409091,29.25 12.8409091,29.5909091 C12.8409091,30.0568182 13.0142045,30.4081439 13.3607955,30.6448864 C13.7073864,30.8816288 14.1477273,31 14.6818182,31 Z" id="Shape"></path>
            <path d="M27.1136364,25.2272727 L25.9090909,25.5681818 C25.8333333,25.3674242 25.7225379,25.1714015 25.5767045,24.9801136 C25.4308712,24.7888258 25.2329545,24.6306818 24.9829545,24.5056818 C24.7329545,24.3806818 24.4128788,24.3181818 24.0227273,24.3181818 C23.4886364,24.3181818 23.0445076,24.4403409 22.6903409,24.6846591 C22.3361742,24.9289773 22.1590909,25.2386364 22.1590909,25.6136364 C22.1590909,25.9469697 22.280303,26.2102273 22.5227273,26.4034091 C22.7651515,26.5965909 23.1439394,26.7575758 23.6590909,26.8863636 L24.9545455,27.2045455 C25.7348485,27.3939394 26.3162879,27.6827652 26.6988636,28.0710227 C27.0814394,28.4592803 27.2727273,28.9583333 27.2727273,29.5681818 C27.2727273,30.0681818 27.1297348,30.5151515 26.84375,30.9090909 C26.5577652,31.3030303 26.1590909,31.6136364 25.6477273,31.8409091 C25.1363636,32.0681818 24.5416667,32.1818182 23.8636364,32.1818182 C22.9734848,32.1818182 22.2367424,31.9886364 21.6534091,31.6022727 C21.0700758,31.2159091 20.7007576,30.6515152 20.5454545,29.9090909 L21.8181818,29.5909091 C21.9393939,30.0606061 22.1695076,30.4128788 22.5085227,30.6477273 C22.8475379,30.8825758 23.2916667,31 23.8409091,31 C24.4659091,31 24.9630682,30.8664773 25.3323864,30.5994318 C25.7017045,30.3323864 25.8863636,30.0113636 25.8863636,29.6363636 C25.8863636,29.3333333 25.780303,29.0785985 25.5681818,28.8721591 C25.3560606,28.6657197 25.030303,28.5113636 24.5909091,28.4090909 L23.1363636,28.0681818 C22.3371212,27.8787879 21.750947,27.5842803 21.3778409,27.1846591 C21.0047348,26.7850379 20.8181818,26.2840909 20.8181818,25.6818182 C20.8181818,25.1893939 20.9573864,24.7537879 21.2357955,24.375 C21.5142045,23.9962121 21.8948864,23.6988636 22.3778409,23.4829545 C22.8607955,23.2670455 23.4090909,23.1590909 24.0227273,23.1590909 C24.8863636,23.1590909 25.5653409,23.3484848 26.0596591,23.7272727 C26.5539773,24.1060606 26.905303,24.6060606 27.1136364,25.2272727 Z" id="Path"></path>
            <path d="M32.9545455,32.1818182 C32.1136364,32.1818182 31.3892045,31.9952652 30.78125,31.6221591 C30.1732955,31.249053 29.7054924,30.7263258 29.3778409,30.0539773 C29.0501894,29.3816288 28.8863636,28.5984848 28.8863636,27.7045455 C28.8863636,26.8106061 29.0501894,26.0217803 29.3778409,25.3380682 C29.7054924,24.6543561 30.1638258,24.1202652 30.7528409,23.7357955 C31.3418561,23.3513258 32.030303,23.1590909 32.8181818,23.1590909 C33.2727273,23.1590909 33.7215909,23.2348485 34.1647727,23.3863636 C34.6079545,23.5378788 35.0113636,23.7831439 35.375,24.1221591 C35.7386364,24.4611742 36.0284091,24.9090909 36.2443182,25.4659091 C36.4602273,26.0227273 36.5681818,26.7083333 36.5681818,27.5227273 L36.5681818,28.0909091 L29.8409091,28.0909091 L29.8409091,26.9318182 L35.2045455,26.9318182 C35.2045455,26.4393939 35.1070076,26 34.9119318,25.6136364 C34.7168561,25.2272727 34.4403409,24.9223485 34.0823864,24.6988636 C33.7244318,24.4753788 33.3030303,24.3636364 32.8181818,24.3636364 C32.2840909,24.3636364 31.8229167,24.4952652 31.4346591,24.7585227 C31.0464015,25.0217803 30.7481061,25.3636364 30.5397727,25.7840909 C30.3314394,26.2045455 30.2272727,26.655303 30.2272727,27.1363636 L30.2272727,27.9090909 C30.2272727,28.5681818 30.3418561,29.125947 30.5710227,29.5823864 C30.8001894,30.0388258 31.1193182,30.3854167 31.5284091,30.6221591 C31.9375,30.8589015 32.4128788,30.9772727 32.9545455,30.9772727 C33.3068182,30.9772727 33.625947,30.9270833 33.9119318,30.8267045 C34.1979167,30.7263258 34.4450758,30.5748106 34.6534091,30.3721591 C34.8617424,30.1695076 35.0227273,29.9166667 35.1363636,29.6136364 L36.4318182,29.9772727 C36.2954545,30.4166667 36.0662879,30.8020833 35.7443182,31.1335227 C35.4223485,31.4649621 35.0246212,31.7225379 34.5511364,31.90625 C34.0776515,32.0899621 33.5454545,32.1818182 32.9545455,32.1818182 Z" id="Path"></path>
        </g>
    </g>
</svg>